<?xml version="1.0" encoding="UTF-8" standalone="no"?>
<!-- Created with Inkscape (http://www.inkscape.org/) -->

<svg
   xmlns:dc="http://purl.org/dc/elements/1.1/"
   xmlns:cc="http://creativecommons.org/ns#"
   xmlns:rdf="http://www.w3.org/1999/02/22-rdf-syntax-ns#"
   xmlns:svg="http://www.w3.org/2000/svg"
   xmlns="http://www.w3.org/2000/svg"
   xmlns:sodipodi="http://sodipodi.sourceforge.net/DTD/sodipodi-0.dtd"
   xmlns:inkscape="http://www.inkscape.org/namespaces/inkscape"
   width="270"
   height="380"
   viewBox="0 0 71.437503 100.54167"
   version="1.1"
   id="svg8"
   inkscape:version="0.92.1 r15371"
   sodipodi:docname="MyModule.svg">
  <defs
     id="defs2">
    <style
       id="style97"
       type="text/css"><![CDATA[
    .fil0 {fill:#229BD0}
    .fil1 {fill:#4D4D4D;fill-rule:nonzero}
   ]]></style>
  </defs>
  <sodipodi:namedview
     id="base"
     pagecolor="#ffffff"
     bordercolor="#666666"
     borderopacity="1.0"
     inkscape:pageopacity="0.0"
     inkscape:pageshadow="2"
     inkscape:zoom="2.5540858"
     inkscape:cx="151.10883"
     inkscape:cy="224.22879"
     inkscape:document-units="mm"
     inkscape:current-layer="layer1"
     showgrid="false"
     units="px"
     inkscape:snap-bbox="true"
     inkscape:snap-page="true"
     inkscape:bbox-nodes="true"
     inkscape:snap-bbox-edge-midpoints="true"
     inkscape:window-width="1920"
     inkscape:window-height="1135"
     inkscape:window-x="0"
     inkscape:window-y="0"
     inkscape:window-maximized="1" />
  <metadata
     id="metadata5">
    <rdf:RDF>
      <cc:Work
         rdf:about="">
        <dc:format>image/svg+xml</dc:format>
        <dc:type
           rdf:resource="http://purl.org/dc/dcmitype/StillImage" />
        <dc:title />
      </cc:Work>
    </rdf:RDF>
  </metadata>
  <g
     inkscape:label="Layer 1"
     inkscape:groupmode="layer"
     id="layer1"
     transform="translate(0,-196.45832)">
    <path
       style="opacity:1;vector-effect:none;fill:#cccccc;fill-opacity:1;fill-rule:evenodd;stroke:none;stroke-width:0.84190798;stroke-linecap:butt;stroke-linejoin:round;stroke-miterlimit:4;stroke-dasharray:none;stroke-dashoffset:0;stroke-opacity:1;paint-order:normal"
       d="M 0,196.45831 H 71.439 V 296.99999 H 0 Z"
       id="rect817"
       inkscape:connector-curvature="0" />
    <path
       d="m 26.629885,288.9787 h 4.60938 c 0.4005,0 0.7281,0.32763 0.7281,0.7281 v 2.10199 h -2.61978 c -0.0967,-0.25291 -0.34163,-0.43257 -0.62857,-0.43257 -0.37152,0 -0.67274,0.30121 -0.67274,0.67274 0,0.37152 0.30122,0.67274 0.67274,0.67274 0.28078,0 0.5214,-0.17205 0.62217,-0.41652 h 2.62618 v 2.01098 c 0,0.4005 -0.3276,0.72809 -0.7281,0.72809 h -3.92111 v -4.53846 h 2.66151 c 0.10352,0.23822 0.34094,0.40485 0.6172,0.40485 0.37152,0 0.67273,-0.30122 0.67273,-0.67274 0,-0.37153 -0.30122,-0.67274 -0.67273,-0.67274 -0.29131,0 -0.53936,0.18518 -0.63291,0.44425 h -3.13569 v 0.01 h -0.006 v 5.02503 h -0.1919 c -0.40043,0 -0.72805,-0.32759 -0.72805,-0.72809 V 289.707 c 0,-0.40047 0.32762,-0.7281 0.72806,-0.7281 z m 3.96698,0.83825 c 0.23249,0 0.42093,0.18845 0.42093,0.42094 0,0.23248 -0.18844,0.42093 -0.42093,0.42093 -0.23248,0 -0.42093,-0.18845 -0.42093,-0.42093 0,-0.23249 0.18845,-0.42094 0.42093,-0.42094 z m -1.87785,1.81106 c 0.23249,0 0.42093,0.18845 0.42093,0.42094 0,0.23248 -0.18844,0.42093 -0.42093,0.42093 -0.23248,0 -0.42093,-0.18845 -0.42093,-0.42093 0,-0.23249 0.18845,-0.42094 0.42093,-0.42094 z"
       class="fil0"
       id="_231403904"
       inkscape:connector-curvature="0"
       style="clip-rule:evenodd;fill:#229bd0;fill-rule:evenodd;stroke-width:25.39999962;image-rendering:optimizeQuality;shape-rendering:geometricPrecision;text-rendering:geometricPrecision" />
    <path
       d="m 26.344605,288.59598 h 5.18006 c 0.45008,0 0.81823,0.36819 0.81823,0.8182 v 5.18006 c 0,0.45009 -0.36815,0.81824 -0.81823,0.81824 h -5.18006 c -0.45002,0 -0.8182,-0.36815 -0.8182,-0.81824 v -5.18006 c 0,-0.45001 0.36818,-0.8182 0.8182,-0.8182 z m 0.1839,0.24197 h 4.81226 c 0.41816,0 0.76017,0.34205 0.76017,0.76013 v 4.81229 c 0,0.41812 -0.34201,0.76014 -0.76017,0.76014 h -4.81226 c -0.41812,0 -0.76013,-0.34202 -0.76013,-0.76014 v -4.81229 c 0,-0.41808 0.34201,-0.76013 0.76013,-0.76013 z"
       class="fil0"
       id="_231403736"
       inkscape:connector-curvature="0"
       style="clip-rule:evenodd;fill:#229bd0;fill-rule:evenodd;stroke-width:25.39999962;image-rendering:optimizeQuality;shape-rendering:geometricPrecision;text-rendering:geometricPrecision" />
    <path
       style="clip-rule:evenodd;fill:#4d4d4d;fill-rule:nonzero;stroke-width:25.39999962;image-rendering:optimizeQuality;shape-rendering:geometricPrecision;text-rendering:geometricPrecision"
       inkscape:connector-curvature="0"
       id="_231403544"
       class="fil1"
       d="m 33.082685,291.57621 v -2.60908 h 1.87264 v 0.54176 h -1.20811 v 0.54055 h 1.04846 v 0.54058 h -1.04846 v 0.98618 z m 2.8697,-1.49167 h 0.49763 c 0.13425,0 0.23339,-0.0248 0.29629,-0.0744 0.0635,-0.0495 0.0949,-0.12879 0.0949,-0.23699 0,-0.0962 -0.0309,-0.1669 -0.0919,-0.21344 -0.0617,-0.0466 -0.1554,-0.0702 -0.28175,-0.0702 h -0.51519 z m -0.6645,1.49167 v -2.60908 h 1.24859 c 0.33076,0 0.57443,0.0592 0.73105,0.17716 0.15659,0.11791 0.23461,0.30111 0.23461,0.54903 0,0.14634 -0.0333,0.2721 -0.1004,0.3761 -0.0666,0.1046 -0.16989,0.19227 -0.31078,0.26303 0.11427,0.0441 0.1953,0.10338 0.24246,0.17834 0.0471,0.075 0.0744,0.2068 0.0816,0.39605 0.004,0.0526 0.007,0.12458 0.0109,0.21406 0.008,0.21042 0.0441,0.33194 0.10825,0.3652 v 0.0901 h -0.70019 c -0.0338,-0.0919 -0.0538,-0.21827 -0.0587,-0.37913 -0.004,-0.16023 -0.009,-0.26119 -0.0139,-0.30292 -0.0109,-0.10158 -0.0448,-0.17594 -0.10279,-0.22313 -0.0575,-0.0471 -0.14453,-0.0707 -0.26001,-0.0707 h -0.44623 v 0.9759 z m 3.40962,-1.01885 h 0.57078 l -0.29083,-0.89973 z m -0.0617,-1.59022 h 0.72983 l 0.92086,2.60908 h -0.71712 l -0.15961,-0.47827 h -0.8713 l -0.14936,0.47827 h -0.69233 z m 1.90406,2.60908 v -2.60908 h 0.72253 l 0.4928,0.8574 c 0.0804,0.13908 0.15662,0.27752 0.22855,0.41419 0.0719,0.13723 0.1397,0.27207 0.20379,0.40572 -0.01,-0.19711 -0.0163,-0.38215 -0.0212,-0.55448 -0.005,-0.17233 -0.007,-0.32408 -0.007,-0.4553 v -0.66753 h 0.64459 v 2.60908 h -0.72076 l -0.51215,-0.88218 c -0.0605,-0.104 -0.12577,-0.2207 -0.19652,-0.34948 -0.0713,-0.12941 -0.1463,-0.26907 -0.2249,-0.41906 0.0127,0.16993 0.0223,0.32836 0.0278,0.47467 0.006,0.14633 0.009,0.27633 0.009,0.38941 v 0.78665 z m 2.77959,0 v -2.60908 h 0.65727 v 0.99526 l 0.92812,-0.99526 h 0.80239 l -1.05572,1.09624 1.0805,1.51284 h -0.79694 l -0.73345,-1.04485 -0.2249,0.22494 v 0.81991 z" />
    <path
       style="clip-rule:evenodd;fill:#4d4d4d;fill-rule:nonzero;stroke-width:25.39999962;image-rendering:optimizeQuality;shape-rendering:geometricPrecision;text-rendering:geometricPrecision"
       inkscape:connector-curvature="0"
       id="_231403400"
       class="fil1"
       d="m 33.920775,293.30217 h 0.69157 c 0.14658,0 0.25573,-0.0273 0.32669,-0.0811 0.0718,-0.0538 0.10759,-0.13646 0.10759,-0.24561 0,-0.10214 -0.0335,-0.17932 -0.10061,-0.23231 -0.067,-0.0523 -0.16603,-0.0787 -0.29704,-0.0787 h -0.7282 z m 0,1.37922 h 0.65102 c 0.20506,0 0.34931,-0.0289 0.43115,-0.0858 0.0819,-0.0569 0.12319,-0.1536 0.12319,-0.28846 0,-0.12243 -0.039,-0.21365 -0.11774,-0.27522 -0.0779,-0.0616 -0.19492,-0.0928 -0.35004,-0.0928 h -0.73758 z m -0.82487,0.66894 v -3.36424 h 1.63338 c 0.39139,0 0.67986,0.0702 0.86622,0.21129 0.18634,0.14112 0.27989,0.35789 0.27989,0.65025 0,0.18087 -0.0413,0.33058 -0.12476,0.44831 -0.0826,0.1185 -0.20972,0.20972 -0.37968,0.27366 0.19491,0.0499 0.34382,0.14033 0.44752,0.27054 0.10369,0.13021 0.15516,0.29159 0.15516,0.48494 0,0.18866 -0.0429,0.35942 -0.12865,0.51146 -0.0865,0.15203 -0.20739,0.27054 -0.36255,0.35397 -0.10447,0.0577 -0.23154,0.099 -0.38125,0.12319 -0.14891,0.0242 -0.37892,0.0366 -0.68921,0.0366 z m 3.38762,-3.36424 h 0.84746 v 2.10119 c 0,0.23154 0.0437,0.39606 0.13102,0.4943 0.0881,0.0982 0.2331,0.14737 0.43503,0.14737 0.19957,0 0.34306,-0.0492 0.42959,-0.14737 0.0865,-0.0982 0.13021,-0.26276 0.13021,-0.4943 v -2.10118 h 0.85685 v 1.99826 c 0,0.28148 -0.0273,0.50601 -0.0819,0.67364 -0.0553,0.16764 -0.14581,0.30952 -0.27209,0.42493 -0.13255,0.12006 -0.28694,0.21049 -0.46236,0.27054 -0.17619,0.06 -0.37423,0.0904 -0.59566,0.0904 -0.22063,0 -0.41867,-0.0304 -0.59486,-0.0904 -0.17542,-0.06 -0.32982,-0.15047 -0.46236,-0.27054 -0.12784,-0.11697 -0.21986,-0.25965 -0.27675,-0.42805 -0.0561,-0.16841 -0.0842,-0.39216 -0.0842,-0.67052 z m 3.30732,2.24698 h 0.8272 c 0.006,0.19182 0.0624,0.33603 0.1692,0.43271 0.10678,0.0967 0.26272,0.14502 0.46858,0.14502 0.17462,0 0.31028,-0.0289 0.4062,-0.0865 0.0959,-0.0577 0.14422,-0.13955 0.14422,-0.24481 0,-0.053 -0.0117,-0.10057 -0.0343,-0.14269 -0.0234,-0.0413 -0.0553,-0.0733 -0.0967,-0.0943 -0.0624,-0.0335 -0.21518,-0.0866 -0.45924,-0.15749 -0.24325,-0.0718 -0.44908,-0.14112 -0.61668,-0.20818 -0.24172,-0.0959 -0.42569,-0.22297 -0.55125,-0.38045 -0.12552,-0.15749 -0.18866,-0.34149 -0.18866,-0.55125 0,-0.3212 0.12083,-0.57693 0.36175,-0.76639 0.24169,-0.18946 0.56838,-0.28457 0.9816,-0.28457 0.40464,0 0.72587,0.0998 0.96367,0.29937 0.23776,0.19961 0.3563,0.46858 0.3563,0.8085 h -0.81087 c -0.0179,-0.15669 -0.0733,-0.27286 -0.16527,-0.34695 -0.0928,-0.0748 -0.22533,-0.11224 -0.39918,-0.11224 -0.13799,0 -0.25104,0.0289 -0.3376,0.0858 -0.0865,0.0568 -0.13021,0.12941 -0.13021,0.2183 0,0.14891 0.20662,0.29003 0.61905,0.42257 0.0748,0.0242 0.13177,0.0421 0.17153,0.0546 l 0.0335,0.0117 c 0.42649,0.138 0.69314,0.25028 0.79992,0.33524 0.10838,0.0889 0.19026,0.19259 0.24715,0.31189 0.0561,0.12006 0.0842,0.2526 0.0842,0.39918 0,0.33447 -0.12861,0.59565 -0.38514,0.78199 -0.25649,0.18633 -0.61591,0.27989 -1.07904,0.27989 -0.4374,0 -0.77032,-0.0998 -0.99873,-0.30014 -0.22845,-0.20041 -0.35553,-0.50368 -0.38125,-0.91068 z m 3.27767,0 h 0.82721 c 0.006,0.19182 0.0624,0.33603 0.1692,0.43271 0.10675,0.0967 0.26268,0.14502 0.46854,0.14502 0.17462,0 0.31028,-0.0289 0.4062,-0.0865 0.0959,-0.0577 0.14422,-0.13955 0.14422,-0.24481 0,-0.053 -0.0117,-0.10057 -0.0343,-0.14269 -0.0234,-0.0413 -0.0554,-0.0733 -0.0967,-0.0943 -0.0624,-0.0335 -0.21518,-0.0866 -0.45923,-0.15749 -0.24326,-0.0718 -0.44905,-0.14112 -0.61665,-0.20818 -0.24173,-0.0959 -0.42569,-0.22297 -0.55125,-0.38045 -0.12553,-0.15749 -0.18866,-0.34149 -0.18866,-0.55125 0,-0.3212 0.12083,-0.57693 0.36175,-0.76639 0.24169,-0.18946 0.56838,-0.28457 0.98157,-0.28457 0.40464,0 0.72586,0.0998 0.96366,0.29937 0.23777,0.19961 0.3563,0.46858 0.3563,0.8085 h -0.81087 c -0.0179,-0.15669 -0.0733,-0.27286 -0.16527,-0.34695 -0.0928,-0.0748 -0.22533,-0.11224 -0.39918,-0.11224 -0.13799,0 -0.25103,0.0289 -0.33756,0.0858 -0.0865,0.0568 -0.13021,0.12941 -0.13021,0.2183 0,0.14891 0.20658,0.29003 0.61901,0.42257 0.0748,0.0242 0.13177,0.0421 0.17153,0.0546 l 0.0335,0.0117 c 0.42649,0.138 0.69314,0.25028 0.79992,0.33524 0.10839,0.0889 0.19026,0.19259 0.24715,0.31189 0.0561,0.12006 0.0842,0.2526 0.0842,0.39918 0,0.33447 -0.12861,0.59565 -0.38514,0.78199 -0.25649,0.18633 -0.61592,0.27989 -1.07904,0.27989 -0.43737,0 -0.77028,-0.0998 -0.9987,-0.30014 -0.22845,-0.20041 -0.35553,-0.50368 -0.38125,-0.91068 z" />
    <g
       aria-label="Formula"
       style="color:#000000;font-style:normal;font-variant:normal;font-weight:normal;font-stretch:normal;font-size:6.3499999px;line-height:125%;font-family:Sans;-inkscape-font-specification:Sans;text-indent:0;text-align:start;text-decoration:none;text-decoration-line:none;letter-spacing:0px;word-spacing:0px;text-transform:none;writing-mode:lr-tb;direction:ltr;baseline-shift:baseline;text-anchor:start;display:inline;overflow:visible;visibility:visible;fill:#000000;fill-opacity:1;fill-rule:nonzero;stroke:none;stroke-width:0.26458332px;stroke-linecap:butt;stroke-linejoin:miter;stroke-opacity:1;marker:none;enable-background:accumulate"
       id="text165"
       transform="translate(0,-1.5875)">
      <path
         d="m 13.849,207.72318 h 5.011236 v 1.40353 h -3.154329 v 1.34083 h 2.966227 v 1.40353 h -2.966227 v 3.05305 H 13.849 Z"
         style="font-style:normal;font-variant:normal;font-weight:bold;font-stretch:normal;font-size:9.87777805px;font-family:Sans;-inkscape-font-specification:'Sans Bold';stroke-width:0.26458332px"
         id="path239"
         inkscape:connector-curvature="0" />
      <path
         d="m 22.689805,210.62671 q -0.573953,0 -0.877811,0.41479 -0.299034,0.40996 -0.299034,1.18649 0,0.77652 0.299034,1.19131 0.303858,0.40997 0.877811,0.40997 0.564306,0 0.863341,-0.40997 0.299034,-0.41479 0.299034,-1.19131 0,-0.77653 -0.299034,-1.18649 -0.299035,-0.41479 -0.863341,-0.41479 z m 0,-1.23473 q 1.393885,0 2.175233,0.75241 0.786171,0.75241 0.786171,2.0836 0,1.33118 -0.786171,2.08359 -0.781348,0.75241 -2.175233,0.75241 -1.398709,0 -2.189703,-0.75241 -0.786171,-0.75241 -0.786171,-2.08359 0,-1.33119 0.786171,-2.0836 0.790994,-0.75241 2.189703,-0.75241 z"
         style="font-style:normal;font-variant:normal;font-weight:bold;font-stretch:normal;font-size:9.87777805px;font-family:Sans;-inkscape-font-specification:'Sans Bold';stroke-width:0.26458332px"
         id="path241"
         inkscape:connector-curvature="0" />
      <path
         d="m 30.922894,210.99326 q -0.226688,-0.1061 -0.453375,-0.15434 -0.221864,-0.0531 -0.448551,-0.0531 -0.665593,0 -1.027328,0.42926 -0.356912,0.42443 -0.356912,1.22025 v 2.48874 h -1.726682 v -5.40191 h 1.726682 v 0.88745 q 0.332796,-0.53054 0.762055,-0.7717 0.434082,-0.24598 1.036974,-0.24598 0.08682,0 0.188102,0.01 0.101286,0.005 0.294211,0.0289 z"
         style="font-style:normal;font-variant:normal;font-weight:bold;font-stretch:normal;font-size:9.87777805px;font-family:Sans;-inkscape-font-specification:'Sans Bold';stroke-width:0.26458332px"
         id="path243"
         inkscape:connector-curvature="0" />
      <path
         d="m 36.797471,210.41931 q 0.327973,-0.5016 0.776525,-0.76205 0.453374,-0.26528 0.993565,-0.26528 0.930865,0 1.418002,0.57396 0.487136,0.57395 0.487136,1.6688 v 3.28938 h -1.736328 v -2.81671 q 0.0048,-0.0627 0.0048,-0.13023 0.0048,-0.0675 0.0048,-0.19292 0,-0.57395 -0.16881,-0.82958 -0.168809,-0.26045 -0.545014,-0.26045 -0.491959,0 -0.762055,0.40514 -0.265272,0.40515 -0.274918,1.17202 v 2.65273 h -1.736329 v -2.81671 q 0,-0.8971 -0.15434,-1.15273 -0.15434,-0.26045 -0.549837,-0.26045 -0.496783,0 -0.766878,0.40997 -0.270096,0.40514 -0.270096,1.16237 v 2.65755 h -1.736328 v -5.40191 h 1.736328 v 0.79099 q 0.318327,-0.4582 0.728293,-0.68971 0.41479,-0.23151 0.911573,-0.23151 0.559483,0 0.988742,0.2701 0.429259,0.27009 0.651123,0.75723 z"
         style="font-style:normal;font-variant:normal;font-weight:bold;font-stretch:normal;font-size:9.87777805px;font-family:Sans;-inkscape-font-specification:'Sans Bold';stroke-width:0.26458332px"
         id="path245"
         inkscape:connector-curvature="0" />
      <path
         d="m 42.035394,212.82123 v -3.29902 h 1.736328 v 0.54019 q 0,0.4389 -0.0048,1.1045 -0.0048,0.66077 -0.0048,0.88263 0,0.65112 0.03376,0.94051 0.03376,0.28457 0.115755,0.41479 0.106109,0.16881 0.274919,0.26045 0.173633,0.0916 0.395497,0.0916 0.540191,0 0.848871,-0.41479 0.308681,-0.41479 0.308681,-1.15273 v -2.66719 h 1.726682 v 5.40191 h -1.726682 v -0.78135 q -0.390674,0.47267 -0.829579,0.69935 -0.434082,0.22187 -0.959804,0.22187 -0.935688,0 -1.427647,-0.57395 -0.487137,-0.57396 -0.487137,-1.66881 z"
         style="font-style:normal;font-variant:normal;font-weight:bold;font-stretch:normal;font-size:9.87777805px;font-family:Sans;-inkscape-font-specification:'Sans Bold';stroke-width:0.26458332px"
         id="path247"
         inkscape:connector-curvature="0" />
      <path
         d="m 49.135047,207.41932 h 1.726682 v 7.5048 h -1.726682 z"
         style="font-style:normal;font-variant:normal;font-weight:bold;font-stretch:normal;font-size:9.87777805px;font-family:Sans;-inkscape-font-specification:'Sans Bold';stroke-width:0.26458332px"
         id="path249"
         inkscape:connector-curvature="0" />
      <path
         d="m 54.951745,212.49326 q -0.540191,0 -0.81511,0.18328 -0.270095,0.18328 -0.270095,0.54019 0,0.32797 0.217041,0.51607 0.221864,0.18328 0.612538,0.18328 0.487136,0 0.819932,-0.34726 0.332797,-0.35209 0.332797,-0.87781 v -0.19775 z m 2.638254,-0.65112 v 3.08198 h -1.741151 v -0.80064 q -0.347266,0.49196 -0.781348,0.71864 -0.434082,0.22187 -1.056266,0.22187 -0.839226,0 -1.364947,-0.48714 -0.520899,-0.49196 -0.520899,-1.2733 0,-0.95016 0.651123,-1.39389 0.655947,-0.44373 2.054655,-0.44373 h 1.017682 v -0.13505 q 0,-0.40996 -0.32315,-0.59807 -0.32315,-0.19292 -1.008035,-0.19292 -0.554661,0 -1.032151,0.11093 -0.47749,0.11093 -0.887457,0.3328 v -1.31672 q 0.554661,-0.13505 1.114144,-0.20257 0.559484,-0.0724 1.118967,-0.0724 1.46141,0 2.10771,0.57878 0.651123,0.57395 0.651123,1.87138 z"
         style="font-style:normal;font-variant:normal;font-weight:bold;font-stretch:normal;font-size:9.87777805px;font-family:Sans;-inkscape-font-specification:'Sans Bold';stroke-width:0.26458332px"
         id="path251"
         inkscape:connector-curvature="0" />
    </g>
    <g
       aria-label="x"
       style="color:#000000;font-style:normal;font-variant:normal;font-weight:normal;font-stretch:normal;font-size:6.3499999px;line-height:125%;font-family:Sans;-inkscape-font-specification:Sans;text-indent:0;text-align:start;text-decoration:none;text-decoration-line:none;letter-spacing:0px;word-spacing:0px;text-transform:none;writing-mode:lr-tb;direction:ltr;baseline-shift:baseline;text-anchor:start;display:inline;overflow:visible;visibility:visible;fill:#000000;fill-opacity:1;fill-rule:nonzero;stroke:none;stroke-width:0.26458332px;stroke-linecap:butt;stroke-linejoin:miter;stroke-opacity:1;marker:none;enable-background:accumulate"
       id="text165-3"
       transform="translate(-0.14650148,-10.054167)">
      <path
         d="m 15.376384,284.66432 -1.395263,1.87758 1.46761,1.98093 h -0.747586 l -1.123101,-1.51584 -1.123101,1.51584 h -0.747585 l 1.498616,-2.01883 -1.371148,-1.83968 h 0.747586 l 1.023193,1.37459 1.023193,-1.37459 z"
         style="font-style:normal;font-variant:normal;font-weight:normal;font-stretch:normal;font-size:7.05555534px;font-family:Sans;-inkscape-font-specification:Sans;stroke-width:0.26458332px"
         id="path254"
         inkscape:connector-curvature="0" />
    </g>
    <g
       aria-label="y"
       style="color:#000000;font-style:normal;font-variant:normal;font-weight:normal;font-stretch:normal;font-size:6.3499999px;line-height:125%;font-family:Sans;-inkscape-font-specification:Sans;text-indent:0;text-align:start;text-decoration:none;text-decoration-line:none;letter-spacing:0px;word-spacing:0px;text-transform:none;writing-mode:lr-tb;direction:ltr;baseline-shift:baseline;text-anchor:start;display:inline;overflow:visible;visibility:visible;fill:#000000;fill-opacity:1;fill-rule:nonzero;stroke:none;stroke-width:0.26458332px;stroke-linecap:butt;stroke-linejoin:miter;stroke-opacity:1;marker:none;enable-background:accumulate"
       id="text165-3-7"
       transform="translate(-0.52916667,-10.054167)">
      <path
         d="m 30.078196,288.9069 q -0.268717,0.68902 -0.523654,0.89917 -0.254937,0.21016 -0.682129,0.21016 h -0.506429 v -0.53055 h 0.37207 q 0.261827,0 0.406522,-0.12402 0.144694,-0.12403 0.320393,-0.58567 l 0.113689,-0.28939 -1.560629,-3.79649 h 0.671794 l 1.205783,3.0179 1.205784,-3.0179 h 0.671793 z"
         style="font-style:normal;font-variant:normal;font-weight:normal;font-stretch:normal;font-size:7.05555534px;font-family:Sans;-inkscape-font-specification:Sans;stroke-width:0.26458332px"
         id="path257"
         inkscape:connector-curvature="0" />
    </g>
    <g
       aria-label="z"
       style="color:#000000;font-style:normal;font-variant:normal;font-weight:normal;font-stretch:normal;font-size:6.3499999px;line-height:125%;font-family:Sans;-inkscape-font-specification:Sans;text-indent:0;text-align:start;text-decoration:none;text-decoration-line:none;letter-spacing:0px;word-spacing:0px;text-transform:none;writing-mode:lr-tb;direction:ltr;baseline-shift:baseline;text-anchor:start;display:inline;overflow:visible;visibility:visible;fill:#000000;fill-opacity:1;fill-rule:nonzero;stroke:none;stroke-width:0.26458332px;stroke-linecap:butt;stroke-linejoin:miter;stroke-opacity:1;marker:none;enable-background:accumulate"
       id="text165-3-7-3"
       transform="translate(-0.52916667,-10.436832)">
      <path
         d="m 43.083311,285.03996 h 3.011014 v 0.57878 l -2.384006,2.7733 h 2.384006 v 0.50643 h -3.097141 v -0.57878 l 2.384006,-2.7733 h -2.297879 z"
         style="font-style:normal;font-variant:normal;font-weight:normal;font-stretch:normal;font-size:7.05555534px;font-family:Sans;-inkscape-font-specification:Sans;stroke-width:0.26458332px"
         id="path260"
         inkscape:connector-curvature="0" />
    </g>
    <g
       aria-label="out"
       style="color:#000000;font-style:normal;font-variant:normal;font-weight:normal;font-stretch:normal;font-size:6.3499999px;line-height:125%;font-family:Sans;-inkscape-font-specification:Sans;text-indent:0;text-align:start;text-decoration:none;text-decoration-line:none;letter-spacing:0px;word-spacing:0px;text-transform:none;writing-mode:lr-tb;direction:ltr;baseline-shift:baseline;text-anchor:start;display:inline;overflow:visible;visibility:visible;fill:#000000;fill-opacity:1;fill-rule:nonzero;stroke:none;stroke-width:0.26458332px;stroke-linecap:butt;stroke-linejoin:miter;stroke-opacity:1;marker:none;enable-background:accumulate"
       id="text165-3-7-3-6"
       transform="translate(-0.52916667,-10.729836)">
      <path
         d="m 57.195185,285.87513 q -0.509874,0 -0.806152,0.39963 -0.296278,0.39618 -0.296278,1.08865 0,0.69246 0.292833,1.09209 0.296278,0.39619 0.809597,0.39619 0.506429,0 0.802708,-0.39963 0.296278,-0.39963 0.296278,-1.08865 0,-0.68558 -0.296278,-1.08521 -0.296279,-0.40307 -0.802708,-0.40307 z m 0,-0.53744 q 0.826823,0 1.298801,0.53744 0.471978,0.53743 0.471978,1.48828 0,0.9474 -0.471978,1.48828 -0.471978,0.53743 -1.298801,0.53743 -0.830268,0 -1.302246,-0.53743 -0.468533,-0.54088 -0.468533,-1.48828 0,-0.95085 0.468533,-1.48828 0.471978,-0.53744 1.302246,-0.53744 z"
         style="font-style:normal;font-variant:normal;font-weight:normal;font-stretch:normal;font-size:7.05555534px;font-family:Sans;-inkscape-font-specification:Sans;stroke-width:0.26458332px"
         id="path263"
         inkscape:connector-curvature="0" />
      <path
         d="m 59.947817,287.76648 v -2.33577 h 0.633897 v 2.31166 q 0,0.54777 0.213596,0.82338 0.213596,0.27216 0.640788,0.27216 0.513319,0 0.809597,-0.32729 0.299724,-0.32728 0.299724,-0.89228 v -2.18763 h 0.633897 v 3.85851 h -0.633897 v -0.59256 q -0.230822,0.3514 -0.537435,0.52365 -0.303169,0.16881 -0.706245,0.16881 -0.664903,0 -1.009413,-0.41341 -0.344509,-0.41341 -0.344509,-1.20923 z m 1.595079,-2.42879 z"
         style="font-style:normal;font-variant:normal;font-weight:normal;font-stretch:normal;font-size:7.05555534px;font-family:Sans;-inkscape-font-specification:Sans;stroke-width:0.26458332px"
         id="path265"
         inkscape:connector-curvature="0" />
      <path
         d="m 65.118905,284.33517 v 1.09554 h 1.305691 v 0.49265 h -1.305691 v 2.09461 q 0,0.47198 0.127468,0.60634 0.130914,0.13436 0.5271,0.13436 h 0.651123 v 0.53055 h -0.651123 q -0.733805,0 -1.012858,-0.27217 -0.279053,-0.27561 -0.279053,-0.99908 v -2.09461 h -0.465088 v -0.49265 h 0.465088 v -1.09554 z"
         style="font-style:normal;font-variant:normal;font-weight:normal;font-stretch:normal;font-size:7.05555534px;font-family:Sans;-inkscape-font-specification:Sans;stroke-width:0.26458332px"
         id="path267"
         inkscape:connector-curvature="0" />
    </g>
  </g>
</svg>
